<?xml version="1.0" standalone="no"?>
<!DOCTYPE svg PUBLIC "-//W3C//DTD SVG 20010904//EN"
 "http://www.w3.org/TR/2001/REC-SVG-20010904/DTD/svg10.dtd">
<svg version="1.0" xmlns="http://www.w3.org/2000/svg"
 width="180.000000pt" height="180.000000pt" viewBox="0 0 180.000000 180.000000"
 preserveAspectRatio="xMidYMid meet">
<metadata>
Created by potrace 1.14, written by Peter Selinger 2001-2017
</metadata>
<g transform="translate(0.000000,180.000000) scale(0.100000,-0.100000)"
fill="#000000" stroke="none">
<path d="M115 1331 c-23 -10 -53 -32 -68 -50 -28 -33 -55 -106 -44 -118 4 -3
201 -6 439 -7 l433 -1 0 -357 -1 -358 96 0 95 0 -1 359 -2 358 366 0 c262 0
367 4 370 12 6 19 -19 80 -46 113 -14 17 -44 39 -67 49 -38 17 -84 19 -785 19
-701 0 -747 -2 -785 -19z"/>
<path d="M267 1122 c-16 -3 -17 -31 -17 -343 l0 -339 93 0 92 0 0 148 c-1 153
-2 159 -60 297 -31 73 -1 25 130 -208 l131 -232 92 -3 92 -3 0 63 c1 74 1 476
0 563 l0 60 -90 0 c-50 0 -91 -2 -91 -5 -1 -3 -3 -63 -4 -135 -2 -122 0 -135
28 -210 16 -44 34 -86 40 -92 6 -9 6 -13 0 -13 -6 0 -26 30 -46 68 -19 37 -76
139 -125 226 l-90 160 -79 0 c-43 1 -87 0 -96 -2z"/>
<path d="M1166 1120 l-50 -5 0 -108 c-1 -88 2 -107 14 -108 8 0 71 -1 140 -1
l125 0 100 47 c55 25 96 42 90 37 -5 -5 -107 -73 -225 -152 -118 -78 -222
-148 -230 -156 -12 -10 -15 -35 -14 -111 1 -54 2 -104 3 -111 1 -10 57 -12
279 -10 l277 3 42 30 c48 34 86 108 80 157 l-3 31 -142 0 -142 0 -96 -47 c-53
-26 -98 -45 -100 -44 -1 2 107 76 241 165 l243 163 1 110 0 110 -47 0 c-26 1
-157 2 -292 3 -135 1 -267 0 -294 -3z"/>
<path d="M2 848 c3 -264 4 -274 26 -313 26 -46 79 -84 128 -92 l34 -6 0 342 0
341 -96 0 -95 0 3 -272z"/>
</g>
</svg>
